HIERARCHY
ROOT root
{
	OFFSET	0	13.1	24.9
	CHANNELS 6  Xposition Yposition Zposition Xrotation Yrotation Zrotation
	JOINT spine_1
	{
		OFFSET	0	9.99999	0
		CHANNELS 3  Xrotation Yrotation Zrotation
		JOINT spine_2
		{
			OFFSET	0	112	-10
			CHANNELS 3  Xrotation Yrotation Zrotation
			JOINT spine_3
			{
				OFFSET	0	206.5	19.3
				CHANNELS 3  Xrotation Yrotation Zrotation
				JOINT spine_4
				{
					OFFSET	0	110.4	14.6
					CHANNELS 3  Xrotation Yrotation Zrotation
					JOINT neck_1
					{
						OFFSET	0	71.8	-50.3
						CHANNELS 3  Xrotation Yrotation Zrotation
						JOINT neck_2
						{
							OFFSET	0	86.2	-25.8
							CHANNELS 3  Xrotation Yrotation Zrotation
							JOINT head_ee
							{
								OFFSET	0	179.8	-8.7
								CHANNELS 3  Xrotation Yrotation Zrotation
								End Site
								{
									OFFSET	1	0	0
								}
							}
						}
					}
					JOINT left_clavicle
					{
						OFFSET	-43.2	22.4	-70.8
						CHANNELS 3  Xrotation Yrotation Zrotation
						JOINT left_shoulder
						{
							OFFSET	-93.9	-5.79999	48.7
							CHANNELS 3  Xrotation Yrotation Zrotation
							JOINT left_elbow
							{
								OFFSET	-291.4	-30.8	15.2
								CHANNELS 3  Xrotation Yrotation Zrotation
								JOINT left_lowarm_twist
								{
									OFFSET	-110.7	-3.89999	13.6
									CHANNELS 3  Xrotation Yrotation Zrotation
									JOINT left_hand
									{
										OFFSET	-110.7	-3.89999	13.6
										CHANNELS 3  Xrotation Yrotation Zrotation
										JOINT left_ee
										{
											OFFSET	-80.8	-5.10001	12.1
											CHANNELS 3  Xrotation Yrotation Zrotation
											End Site
											{
												OFFSET	1	0	0
											}
										}
									}
								}
							}
						}
					}
					JOINT right_clavicle
					{
						OFFSET	43.2	22.4	-70.8
						CHANNELS 3  Xrotation Yrotation Zrotation
						JOINT right_shoulder
						{
							OFFSET	93.9	-5.79999	48.7
							CHANNELS 3  Xrotation Yrotation Zrotation
							JOINT right_elbow
							{
								OFFSET	291.4	-30.8	15.2
								CHANNELS 3  Xrotation Yrotation Zrotation
								JOINT right_lowarm_twist
								{
									OFFSET	110.7	-3.89999	13.6
									CHANNELS 3  Xrotation Yrotation Zrotation
									JOINT right_hand
									{
										OFFSET	110.7	-3.89999	13.6
										CHANNELS 3  Xrotation Yrotation Zrotation
										JOINT right_ee
										{
											OFFSET	80.8	-5.10001	12.1
											CHANNELS 3  Xrotation Yrotation Zrotation
											End Site
											{
												OFFSET	1	0	0
											}
										}
									}
								}
							}
						}
					}
				}
			}
		}
	}
	JOINT left_hip
	{
		OFFSET	-82.8	-127.5	0.300001
		CHANNELS 3  Xrotation Yrotation Zrotation
		JOINT left_knee
		{
			OFFSET	-28.2	-396.7	2.2
			CHANNELS 3  Xrotation Yrotation Zrotation
			JOINT left_ankle
			{
				OFFSET	-11.7	-411.3	35.4
				CHANNELS 3  Xrotation Yrotation Zrotation
				JOINT left_toes
				{
					OFFSET	0	-60	-88.6
					CHANNELS 3  Xrotation Yrotation Zrotation
					JOINT left_foot_ee
					{
						OFFSET	-22.5	-16.5	-42.2
						CHANNELS 3  Xrotation Yrotation Zrotation
						End Site
						{
							OFFSET	1	0	0
						}
					}
				}
			}
		}
	}
	JOINT right_hip
	{
		OFFSET	82.8	-127.5	0.300001
		CHANNELS 3  Xrotation Yrotation Zrotation
		JOINT right_knee
		{
			OFFSET	28.2	-396.7	2.2
			CHANNELS 3  Xrotation Yrotation Zrotation
			JOINT right_ankle
			{
				OFFSET	11.7	-411.3	35.4
				CHANNELS 3  Xrotation Yrotation Zrotation
				JOINT right_toes
				{
					OFFSET	0	-60	-88.6
					CHANNELS 3  Xrotation Yrotation Zrotation
					JOINT right_foot_ee
					{
						OFFSET	22.5	-16.5	-42.2
						CHANNELS 3  Xrotation Yrotation Zrotation
						End Site
						{
							OFFSET	1	0	0
						}
					}
				}
			}
		}
	}
}
MOTION
Frames: 15
Frame Time: 0.02
1094.82 754.755 -1555.34 19.4225 82.2423 -25.0969 -0.680922 0.792565 4.14016 -0.671543 0.527746 4.1821 -0.625924 -0.409125 4.19535 -0.650386 0.257982 4.20733 -2.74217 11.2532 -8.60714 -2.04292 27.0983 -7.56105 -0.0 0.0 -0.0 -5.57634 19.4989 -6.05543 -31.6374 -54.503 49.0532 0.637659 -17.5303 0.0983186 -66.1623 -6.05754 5.25134 2.87742 -2.10019 18.7646 -0.0 0.0 -0.0 8.56398 -3.05092 -16.6196 -9.33451 32.4765 -60.4019 2.75449 53.7535 -1.39623 5.39756 -0.15866 0.670945 0.586473 18.4022 3.91009 0.0 0.0 0.0 4.51615 -10.7787 -0.766955 -12.5771 0.310222 1.90135 14.917 9.08505 -2.0825 -16.3989 0.0 0.0 -0.0 0.0 -0.0 1.68797 -0.409317 -0.129365 -3.79461 -0.137531 -0.566009 13.0692 16.922 2.02004 -12.9001 0.0 0.0 0.0 0.0 0.0 
1085.43 756.959 -1556.78 21.2928 83.1957 -26.7208 -0.640644 0.789876 4.09095 -0.63149 0.528185 4.13282 -0.586551 -0.394933 4.14766 -0.610453 0.264485 4.15799 -2.46787 11.0884 -8.73502 -1.7409 26.8961 -7.79379 -0.0 0.0 -0.0 -5.65436 19.0367 -6.3006 -32.3805 -54.6643 48.1785 0.647088 -17.7733 0.101178 -65.4141 -5.96272 5.23758 2.9777 -2.898 19.1473 -0.0 0.0 -0.0 8.83166 -2.70098 -17.1635 -9.79559 31.8285 -60.4862 2.81535 54.3482 -1.4455 6.12683 -0.175225 0.762631 0.597211 19.6896 4.39593 0.0 0.0 0.0 5.52286 -11.5112 -1.05781 -11.4443 0.299479 1.72787 11.9607 9.64397 -1.68917 -16.6092 0.0 0.0 -0.0 0.0 -0.0 1.25906 -0.524529 -0.365031 -3.99876 -0.143863 -0.5967 13.1584 18.1721 2.05396 -13.3252 0.0 0.0 0.0 0.0 0.0 
1083.26 755.176 -1558.56 18.4979 83.9285 -23.749 -0.833967 0.778611 4.0759 -0.824876 0.517899 4.11709 -0.780391 -0.415514 4.12866 -0.80409 0.241168 4.14247 -2.85677 10.721 -8.49958 -2.21003 26.0537 -7.47883 -0.0 0.0 -0.0 -5.78296 18.7857 -6.56773 -33.1672 -54.6566 47.0523 0.791524 -21.4099 0.149633 -64.0762 -5.7936 5.20989 3.11243 -3.30025 19.941 -0.0 0.0 -0.0 9.18369 -2.55939 -17.8703 -9.60376 30.674 -60.426 2.76982 53.9049 -1.4086 5.94677 -0.171244 0.739975 0.686993 21.8234 4.72756 0.0 0.0 0.0 6.43333 -11.2871 -1.39799 -7.96849 0.245144 1.19737 9.19279 11.7227 -1.31313 -18.4569 0.0 0.0 -0.0 0.0 -0.0 1.53952 -2.14357 -0.534256 -3.85503 -0.139416 -0.575091 10.1342 18.5398 1.60743 -13.5639 0.0 0.0 0.0 0.0 0.0 
1078.59 760.877 -1559.15 12.3338 85.3546 -17.6492 -0.867834 0.692249 4.04767 -0.858826 0.433502 4.08343 -0.820857 -0.493333 4.07665 -0.844008 0.156129 4.10337 -3.01283 10.2752 -8.64888 -2.39124 25.3621 -7.65423 -0.0 0.0 -0.0 -5.77284 18.5577 -6.61498 -32.9318 -54.889 46.772 0.901122 -24.0552 0.191997 -62.8407 -5.638 5.1808 3.28937 -4.38657 20.7504 -0.0 0.0 -0.0 9.47721 -2.66129 -18.4517 -8.65283 27.8784 -60.9505 2.60949 52.2658 -1.2804 4.64457 -0.140333 0.576505 0.927072 24.0712 4.1374 0.0 0.0 0.0 6.53339 -10.2571 -1.81768 -4.49593 0.158825 0.671534 6.56473 12.7327 -0.946747 -19.8144 0.0 0.0 -0.0 0.0 -0.0 2.41783 -5.51726 -0.54168 -3.46872 -0.127196 -0.517064 7.35392 18.5832 1.17952 -13.8051 0.0 0.0 0.0 0.0 0.0 
1074.9 759.863 -1558.0 5.24518 86.8886 -10.5035 -0.8085 0.588049 3.9139 -0.800043 0.338004 3.94332 -0.770482 -0.551681 3.91918 -0.791904 0.0737018 3.95707 -2.55434 9.91715 -8.46134 -1.93245 24.5697 -7.61246 -0.0 0.0 -0.0 -5.60684 17.5287 -6.63529 -32.8386 -55.2077 46.3687 0.98047 -25.9052 0.22551 -61.8004 -5.50748 5.15369 3.40264 -5.0012 21.3024 -0.0 0.0 -0.0 9.6928 -2.73354 -18.8798 -8.12844 25.8989 -61.3421 2.44972 50.502 -1.15555 3.58112 -0.112339 0.443546 1.14015 25.5045 3.3903 0.0 0.0 0.0 6.58916 -9.41043 -1.68684 -2.15684 0.0827782 0.320632 4.34466 13.4576 -0.631282 -20.7649 0.0 0.0 -0.0 0.0 -0.0 3.0147 -7.88196 -0.551427 -3.31714 -0.122294 -0.494317 5.19427 18.613 0.839777 -13.9699 0.0 0.0 0.0 0.0 0.0 
1066.45 756.134 -1554.62 10.6476 87.2983 -15.83 -0.789006 0.564733 3.82986 -0.780904 0.32007 3.85797 -0.753386 -0.548943 3.83215 -0.77387 0.0626919 3.8707 -2.20702 9.78558 -8.11464 -1.59712 24.0613 -7.33884 -0.0 0.0 -0.0 -5.33812 16.9005 -6.37507 -32.7548 -55.3151 46.2808 0.970266 -25.6704 0.221071 -60.7773 -5.37958 5.12472 3.48224 -5.44051 21.6869 -0.0 0.0 -0.0 9.77223 -3.53982 -18.9878 -7.77275 24.3392 -61.5558 2.34345 49.2507 -1.07429 2.82419 -0.0909099 0.349232 1.34897 26.9164 2.6826 0.0 0.0 0.0 6.78843 -9.22978 -1.1223 -0.676572 0.0272669 0.100247 1.64136 13.1466 -0.240073 -21.5294 0.0 0.0 -0.0 0.0 -0.0 3.11002 -9.57661 -0.44817 -5.35627 -0.183181 -0.801321 3.72297 17.7917 0.600562 -14.1239 0.0 0.0 0.0 0.0 0.0 
1061.56 752.698 -1552.82 13.369 87.5785 -18.4185 -0.855544 0.49016 3.63761 -0.84822 0.257855 3.66138 -0.826325 -0.570376 3.62591 -0.844669 0.00902564 3.67043 -1.89075 9.68431 -7.88675 -1.28394 23.6979 -7.17922 -0.0 0.0 -0.0 -5.11866 16.1831 -6.20734 -32.3904 -55.4232 46.0212 0.963136 -25.5058 0.217991 -60.027 -5.28611 5.10202 3.53413 -5.73657 21.9331 -0.0 0.0 -0.0 9.82162 -4.11228 -19.0468 -7.97194 23.1523 -61.8359 2.2471 48.0584 -1.00195 2.2851 -0.0748891 0.282235 1.49903 27.8683 2.15913 0.0 0.0 0.0 6.694 -9.17885 -1.3465 -0.300929 0.0122742 0.0445494 -0.297009 12.9202 0.0436294 -22.0589 0.0 0.0 -0.0 0.0 -0.0 3.2173 -10.748 -0.20819 -6.73168 -0.218058 -1.00951 2.79005 17.2264 0.449248 -14.1852 0.0 0.0 0.0 0.0 0.0 
1055.89 764.259 -1548.63 13.6931 88.1297 -18.2875 -0.910564 0.550073 3.47924 -0.90389 0.327704 3.50715 -0.878608 -0.470693 3.49085 -0.8956 0.0861747 3.52135 -0.528919 9.48122 -6.04613 -0.00217424 21.838 -5.49851 -0.0 0.0 -0.0 -4.96003 15.652 -6.08359 -30.9114 -55.8349 46.33 0.941221 -24.997 0.208643 -59.4592 -5.21557 5.08402 3.67449 -5.89413 22.8866 -0.0 0.0 -0.0 9.82239 -4.67072 -19.0078 -9.8988 21.969 -61.413 2.07689 45.8087 -0.877579 1.92767 -0.0639195 0.237898 2.02135 28.7051 -0.764601 0.0 0.0 0.0 6.72955 -9.76641 -1.01547 -1.97905 0.0764124 0.294089 -0.888016 10.4533 0.130303 -22.2369 0.0 0.0 -0.0 0.0 -0.0 3.22133 -11.2079 -0.392398 -7.66707 -0.238917 -1.15154 3.84392 16.3879 0.612687 -13.3672 0.0 0.0 0.0 0.0 0.0 
1049.33 758.08 -1547.72 27.592 89.1833 -31.872 -0.94107 0.589312 3.37058 -0.934828 0.373766 3.4012 -0.907574 -0.403552 3.3978 -0.923656 0.137807 3.41888 -0.0521134 9.43373 -4.83525 0.404752 20.7541 -4.27216 -0.0 0.0 -0.0 -4.50754 15.1568 -5.46683 -29.031 -56.3224 46.8796 0.82092 -22.1294 0.160536 -59.0965 -5.17061 5.07216 3.52526 -5.60743 21.9257 -0.0 0.0 -0.0 10.0862 -3.19407 -19.6409 -10.6344 21.4172 -60.5693 1.87414 42.8692 -0.735829 3.38393 -0.106876 0.418948 2.1745 26.6387 -2.74067 0.0 0.0 0.0 6.59339 -10.2757 -1.55703 -3.30938 0.122041 0.493153 0.412062 7.68193 -0.060247 -21.8141 0.0 0.0 -0.0 0.0 -0.0 3.28004 -11.4997 -0.274865 -8.24696 -0.250683 -1.23974 5.97496 16.3849 0.945588 -11.3247 0.0 0.0 0.0 0.0 0.0 
1046.01 763.253 -1544.33 172.295 89.5127 -176.623 -1.05352 0.602155 3.25553 -1.04771 0.393892 3.2872 -1.02014 -0.364621 3.29058 -1.03521 0.159347 3.30686 -1.20066 8.63408 -4.49669 -0.864149 19.1105 -3.77758 -0.0 0.0 -0.0 -3.85901 14.5553 -4.54256 -26.2939 -56.8732 47.6531 0.758232 -20.5864 0.137703 -58.3197 -5.07455 5.0458 3.24181 -4.95678 20.1625 -0.0 0.0 -0.0 10.2565 -2.14404 -20.0576 -12.3024 20.796 -60.2096 1.66232 39.467 -0.596329 3.40848 -0.107561 0.42201 2.71447 25.5402 -6.76642 0.0 0.0 0.0 6.62334 -10.5561 -1.24027 -3.01057 0.112195 0.448351 -0.382453 4.83095 0.05613 -20.4044 0.0 0.0 -0.0 0.0 -0.0 3.3749 -11.0047 -0.173035 -8.45868 -0.254755 -1.27198 7.23386 16.3745 1.13962 -9.61446 0.0 0.0 0.0 0.0 0.0 
1041.21 765.452 -1538.72 -177.896 88.9821 173.778 -1.11977 0.600013 3.14682 -1.11435 0.39866 3.17858 -1.08745 -0.338962 3.18549 -1.10157 0.168115 3.19905 -2.00356 8.06451 -4.35386 -1.73292 18.0044 -3.55594 -0.0 0.0 -0.0 -3.50544 14.0592 -4.06643 -24.9338 -56.9479 47.2944 0.711823 -19.4235 0.121826 -57.7338 -5.00234 5.02506 3.03981 -4.46296 18.9298 -0.0 0.0 -0.0 10.2655 -1.39309 -20.1244 -13.6149 20.0668 -59.4754 1.51873 36.9529 -0.507493 3.42996 -0.108158 0.424688 3.07534 24.6818 -9.55653 0.0 0.0 0.0 6.67489 -10.741 -1.01853 -2.79881 0.105076 0.416632 -0.931208 3.05091 0.13718 -19.4168 0.0 0.0 -0.0 0.0 -0.0 3.42521 -10.6574 -0.0462146 -8.61691 -0.257721 -1.29608 8.11699 16.3033 1.27388 -8.41732 0.0 0.0 0.0 0.0 0.0 
1039.48 762.359 -1536.01 -172.882 87.8855 168.982 -1.12733 0.547752 3.09233 -1.12208 0.349968 3.12088 -1.09846 -0.37382 3.11811 -1.11201 0.123068 3.13801 -2.25348 7.64594 -4.29382 -2.01128 17.2094 -3.50458 -0.0 0.0 -0.0 -3.02613 13.3719 -3.41091 -23.4278 -57.2272 47.1452 0.681671 -18.6589 0.111989 -57.3253 -4.95212 5.01016 2.84572 -3.85222 17.8108 -0.0 0.0 -0.0 10.3166 -0.916973 -20.2583 -15.314 19.3965 -59.2133 1.41943 35.1107 -0.449074 3.26304 -0.103485 0.403878 3.29554 23.6413 -11.5475 0.0 0.0 0.0 6.77073 -10.7365 -0.890837 -2.63455 0.0994735 0.392045 -0.753543 2.14262 0.111141 -18.4201 0.0 0.0 -0.0 0.0 -0.0 3.47005 -10.4458 0.237957 -8.72617 -0.259731 -1.31272 8.505 16.1375 1.33109 -7.58573 0.0 0.0 0.0 0.0 0.0 
1036.29 756.974 -1536.56 -179.462 86.5207 175.42 -1.1026 0.51258 3.02382 -1.09757 0.31922 3.05027 -1.0763 -0.386432 3.0425 -1.0892 0.0986889 3.06533 -2.3808 7.35109 -4.25768 -2.15529 16.6514 -3.48459 -0.0 0.0 -0.0 -2.85134 12.6288 -3.26032 -22.1371 -57.5514 47.0361 0.666833 -18.28 0.107288 -57.0336 -4.91631 4.99929 2.70284 -3.4247 16.9818 -0.0 0.0 -0.0 10.3532 -0.735241 -20.3446 -16.9539 18.8187 -59.139 1.33354 33.447 -0.400694 3.14711 -0.100204 0.389434 3.43841 22.8287 -12.9235 0.0 0.0 0.0 6.85274 -10.7333 -0.814144 -2.50853 0.0951273 0.373194 -0.625839 1.51145 0.0923957 -17.7202 0.0 0.0 -0.0 0.0 -0.0 3.39464 -10.3007 0.407445 -9.59201 -0.27453 -1.44476 8.77736 16.0231 1.37107 -7.00057 0.0 0.0 0.0 0.0 0.0 
1030.71 755.317 -1532.97 177.492 85.4545 178.638 -0.863724 0.468018 2.81491 -0.859362 0.288023 2.83896 -0.841684 -0.35689 2.83114 -0.852856 0.0945256 2.85196 -0.992328 7.09227 -4.44211 -0.723279 16.2926 -3.92117 -0.0 0.0 -0.0 -2.71507 10.663 -3.3911 -20.5059 -57.6675 47.3397 0.756996 -20.5557 0.137269 -56.3145 -4.8283 4.97174 2.58628 -3.13115 16.2853 -0.0 0.0 -0.0 10.4475 -0.632303 -20.5459 -18.1024 18.0794 -59.0426 1.22808 31.3133 -0.344208 2.83351 -0.0911814 0.350392 3.38963 21.5063 -13.2872 0.0 0.0 0.0 6.90311 -10.7327 -0.78391 -2.42 0.0920489 0.359955 -0.536393 1.04223 0.0792549 -17.1844 0.0 0.0 -0.0 0.0 -0.0 3.28099 -10.1927 0.913084 -10.8277 -0.292191 -1.63355 8.9941 14.6599 1.38948 -6.5897 0.0 0.0 0.0 0.0 0.0 
1027.0 756.198 -1529.61 179.294 84.6 176.923 -0.716092 0.43839 2.67801 -0.712142 0.267157 2.70045 -0.696638 -0.33929 2.69235 -0.706741 0.0900123 2.71213 -0.0314778 6.97662 -4.35524 0.256506 15.9861 -3.98038 -0.0 0.0 -0.0 -2.46359 9.33782 -3.18991 -18.9648 -57.6805 48.2794 0.827216 -22.2826 0.162915 -55.9166 -4.77974 4.95602 2.43083 -2.88636 15.2998 -0.0 0.0 -0.0 10.579 -0.680903 -20.8154 -19.0017 17.2604 -59.1791 1.09305 28.4331 -0.276927 2.61885 -0.0848821 0.323695 3.31123 20.5951 -13.2283 0.0 0.0 0.0 6.8364 -10.7171 -0.567701 -2.34119 0.0892915 0.348174 -0.458178 0.697139 0.0677394 -16.5686 0.0 0.0 -0.0 0.0 -0.0 3.27355 -10.6816 1.26092 -11.6267 -0.30144 -1.75578 9.1575 13.6659 1.40392 -6.20725 0.0 0.0 0.0 0.0 0.0 
